<?xml version="1.0" ?><!DOCTYPE svg  PUBLIC '-//W3C//DTD SVG 1.1//EN'  'http://www.w3.org/Graphics/SVG/1.1/DTD/svg11.dtd'><svg enable-background="new 0 0 32 32" height="32px" id="Слой_1" version="1.1" viewBox="0 0 32 32" width="32px" xml:space="preserve" xmlns="http://www.w3.org/2000/svg" xmlns:xlink="http://www.w3.org/1999/xlink"><path d="M32,16c0-0.235-0.117-0.535-0.286-0.705l-6.899-6.999  c-0.391-0.394-1.024-0.394-1.414,0c-0.391,0.395-0.391,1.034,0,1.429L28.602,15H14.334L7.707,8.278  c-0.391-0.394-1.024-0.394-1.414,0c-0.391,0.395-0.391,1.034,0,1.429L11.512,15H8.334L1.707,8.278c-0.391-0.394-1.024-0.394-1.414,0  c-0.391,0.395-0.391,1.034,0,1.429l6.195,6.285l-6.196,6.285c-0.391,0.394-0.391,1.034,0,1.429c0.391,0.394,1.024,0.394,1.414,0  L8.316,17h3.177l-5.201,5.276c-0.391,0.394-0.391,1.034,0,1.429c0.391,0.394,1.024,0.395,1.414,0L14.316,17h14.303l-5.219,5.294  c-0.391,0.394-0.391,1.034,0,1.429c0.391,0.394,1.024,0.394,1.414,0l6.9-6.999C31.904,16.532,32,16.267,32,16z" fill="#121313" id="Vintage_Arrow_Right"/><g/><g/><g/><g/><g/><g/></svg>